<svg width="64" height="115" viewBox="0 0 64 115" fill="none" xmlns="http://www.w3.org/2000/svg">
<path d="M27.2101 11.3715C32.8628 23.0263 15.4643 30.9423 7.4824 22.2C4.15639 18.4755 5.68616 11.2781 13.7538 7.36681C17.7911 5.36446 23.4439 3.54414 27.2101 11.3715Z" fill="black"/>
<path d="M62.7946 6.24348C68.9446 18.9306 49.9949 27.5508 41.3087 18.0324C37.6877 13.9726 39.3507 6.14528 48.1439 1.8843C52.5358 -0.29769 58.6882 -2.27369 62.7946 6.24348Z" fill="black"/>
<path fill-rule="evenodd" clip-rule="evenodd" d="M26.4038 114.699C39.2748 116.181 52.6716 112.14 57.8462 103.796C62.2214 96.7947 58.6408 94.3708 53.5995 100.023C42.9886 112.277 31.978 106.756 27.3364 94.3708L28.5307 93.9684C50.9467 84.9483 65.0073 60.4506 56.1213 46.5851C43.9141 27.4693 5.71255 44.5636 0.935284 71.3534C-3.4423 96.1217 7.96558 112.679 26.4038 114.699ZM40.2024 47.9336C44.0494 54.125 39.4077 76.067 25.478 86.0285C25.0807 82.9292 25.0807 79.5664 25.3448 76.067C28.1307 51.567 36.0912 41.4738 40.2024 47.9336Z" fill="black"/>
</svg>
